<svg width="54" height="54" viewBox="0 0 54 54" fill="none" xmlns="http://www.w3.org/2000/svg">
<g filter="url(#filter0_d_297_3388)">
<path d="M27 51C40.8071 51 52 39.8071 52 26C52 12.1929 40.8071 1 27 1C13.1929 1 2 12.1929 2 26C2 39.8071 13.1929 51 27 51Z" fill="#05B1A1"/>
<path d="M24.5183 31.7728C25.1045 31.7728 25.5797 31.2976 25.5797 30.7114C25.5797 30.1252 25.1045 29.65 24.5183 29.65C23.9321 29.65 23.4569 30.1252 23.4569 30.7114C23.4569 31.2976 23.9321 31.7728 24.5183 31.7728Z" fill="#FEFEFE"/>
<path d="M35.7813 22.2966C34.277 24.0681 32.7117 25.5266 31.0929 26.6949C29.474 27.8708 27.7941 28.7489 26.0684 29.3445C25.8699 29.4132 25.6561 29.3063 25.5874 29.1078C25.5568 29.0162 25.5568 28.9245 25.5874 28.8482C26.6335 25.664 28.0079 22.7929 29.7031 20.2349C29.7108 20.2196 29.7184 20.212 29.726 20.1967C29.8558 19.9982 29.9933 19.7996 30.1307 19.6011C32.0244 16.8674 34.2923 14.4927 36.9267 12.4691C37.0947 12.3393 37.3314 12.3699 37.4612 12.5379C37.5147 12.6066 37.5452 12.6982 37.5376 12.7822C37.5223 13.2633 37.5223 13.7978 37.5223 14.3628C37.5299 16.3635 37.5452 18.6619 36.5296 19.7538C35.9188 20.4105 34.8345 20.7083 33.6814 20.8228C34.445 21.0672 35.1246 21.3573 35.6973 21.7315C35.8729 21.846 35.9264 22.0828 35.8119 22.2584C35.8042 22.2737 35.7966 22.2813 35.7813 22.2966ZM30.65 26.0763C32.1084 25.0226 33.5287 23.7168 34.9032 22.1438C34.3534 21.846 33.6967 21.6093 32.9713 21.4108C32.1237 21.1741 31.1845 20.9908 30.2147 20.8381C28.7486 23.0983 27.5269 25.5953 26.5648 28.3442C27.9621 27.7944 29.3213 27.0385 30.65 26.0763ZM30.7569 20.0287L30.7187 20.0821C32.4139 20.1814 35.033 20.2425 35.9722 19.2346C36.7816 18.3641 36.774 16.226 36.7663 14.3628C36.7663 14.088 36.7587 13.8207 36.7663 13.5687C34.4603 15.4319 32.4521 17.5852 30.7569 20.0287Z" fill="#FEFEFE"/>
<path d="M17.0351 36.1252C16.7144 36.1252 16.4624 35.8732 16.4624 35.5525C16.4624 35.2394 16.7144 34.9798 17.0351 34.9798H19.9444V32.0705C19.9444 31.7498 20.204 31.4978 20.5171 31.4978C20.8301 31.4978 21.0898 31.7498 21.0898 32.0705V34.9798H23.9991C24.3198 34.9798 24.5717 35.2394 24.5717 35.5525C24.5717 35.8732 24.3198 36.1252 23.9991 36.1252H21.0898V39.0421C21.0898 39.3552 20.8301 39.6148 20.5171 39.6148C20.204 39.6148 19.9444 39.3552 19.9444 39.0421V36.1252H17.0351Z" fill="#FEFEFE"/>
</g>
<defs>
<filter id="filter0_d_297_3388" x="0" y="0" width="54" height="54" filterUnits="userSpaceOnUse" color-interpolation-filters="sRGB">
<feFlood flood-opacity="0" result="BackgroundImageFix"/>
<feColorMatrix in="SourceAlpha" type="matrix" values="0 0 0 0 0 0 0 0 0 0 0 0 0 0 0 0 0 0 127 0" result="hardAlpha"/>
<feOffset dy="1"/>
<feGaussianBlur stdDeviation="1"/>
<feColorMatrix type="matrix" values="0 0 0 0 0 0 0 0 0 0 0 0 0 0 0 0 0 0 0.12 0"/>
<feBlend mode="normal" in2="BackgroundImageFix" result="effect1_dropShadow_297_3388"/>
<feBlend mode="normal" in="SourceGraphic" in2="effect1_dropShadow_297_3388" result="shape"/>
</filter>
</defs>
</svg>
