<svg width="24" height="24" viewBox="0 0 24 24" fill="none" xmlns="http://www.w3.org/2000/svg">
<path d="M16.54 6L15.7918 6.50027L16.0591 6.9H16.54V6ZM7.46 6V6.9H7.94086L8.20815 6.50027L7.46 6ZM8.57 4.34L9.31815 4.84027L9.31966 4.838L8.57 4.34ZM11.07 3L11.0697 3.9H11.07V3ZM12.93 3V3.9L12.9303 3.9L12.93 3ZM15.43 4.34L14.6803 4.838L14.6818 4.84027L15.43 4.34ZM14.8286 15.8284L14.1922 15.192L14.1922 15.192L14.8286 15.8284ZM19 5.1H16.54V6.9H19V5.1ZM22.9 9C22.9 6.84609 21.1539 5.1 19 5.1V6.9C20.1598 6.9 21.1 7.8402 21.1 9H22.9ZM22.9 17V9H21.1V17H22.9ZM19 20.9C21.1539 20.9 22.9 19.1539 22.9 17H21.1C21.1 18.1598 20.1598 19.1 19 19.1V20.9ZM5 20.9H19V19.1H5V20.9ZM1.1 17C1.1 19.1539 2.84609 20.9 5 20.9V19.1C3.8402 19.1 2.9 18.1598 2.9 17H1.1ZM1.1 9V17H2.9V9H1.1ZM5 5.1C2.84609 5.1 1.1 6.84609 1.1 9H2.9C2.9 7.8402 3.8402 6.9 5 6.9V5.1ZM7.46 5.1H5V6.9H7.46V5.1ZM7.82185 3.83973L6.71185 5.49973L8.20815 6.50027L9.31815 4.84027L7.82185 3.83973ZM11.0703 2.1C9.76357 2.09951 8.54341 2.75352 7.82034 3.842L9.31966 4.838C9.70901 4.2519 10.366 3.89974 11.0697 3.9L11.0703 2.1ZM12.93 2.1H11.07V3.9H12.93V2.1ZM16.1797 3.842C15.4566 2.75352 14.2364 2.09951 12.9297 2.1L12.9303 3.9C13.634 3.89974 14.291 4.2519 14.6803 4.838L16.1797 3.842ZM17.2882 5.49973L16.1782 3.83973L14.6818 4.84027L15.7918 6.50027L17.2882 5.49973ZM12.0002 16.0999C10.2881 16.0999 8.90019 14.712 8.90019 12.9999H7.10019C7.10019 15.7061 9.29399 17.8999 12.0002 17.8999V16.0999ZM14.1922 15.192C13.6109 15.7733 12.8224 16.0999 12.0002 16.0999V17.8999C13.2998 17.8999 14.5461 17.3837 15.465 16.4648L14.1922 15.192ZM15.1002 12.9999C15.1002 13.8221 14.7736 14.6106 14.1922 15.192L15.465 16.4648C16.3839 15.5458 16.9002 14.2995 16.9002 12.9999H15.1002ZM12.0002 9.89995C13.7123 9.89995 15.1002 11.2879 15.1002 12.9999H16.9002C16.9002 10.2937 14.7064 8.09995 12.0002 8.09995V9.89995ZM8.90019 12.9999C8.90019 11.2879 10.2881 9.89995 12.0002 9.89995V8.09995C9.29399 8.09995 7.10019 10.2937 7.10019 12.9999H8.90019Z" fill="#05B1A1"/>
</svg>
