<svg width="28" height="28" viewBox="0 0 28 28" fill="none" xmlns="http://www.w3.org/2000/svg">
<path d="M22.9265 17.6632C22.8788 17.4915 22.9837 17.2531 23.0839 17.0815C23.1145 17.0304 23.1479 16.9811 23.184 16.9337C24.0404 15.6612 24.4984 14.1624 24.4998 12.6286C24.5141 8.23283 20.8049 4.66666 16.2185 4.66666C12.2185 4.66666 8.88114 7.38896 8.09925 11.0028C7.98228 11.5384 7.92314 12.0851 7.92285 12.6333C7.92285 17.0338 11.489 20.6954 16.0755 20.6954C16.8049 20.6954 17.787 20.4761 18.3258 20.3283C18.8645 20.1805 19.3985 19.985 19.5368 19.9325C19.6785 19.8791 19.8287 19.8517 19.9801 19.8515C20.1454 19.8509 20.3091 19.8833 20.4617 19.9468L23.1649 20.9051C23.2242 20.9302 23.2868 20.9463 23.3508 20.9528C23.452 20.9528 23.549 20.9126 23.6205 20.8411C23.6921 20.7696 23.7322 20.6726 23.7322 20.5714C23.7289 20.5278 23.7209 20.4846 23.7084 20.4427L22.9265 17.6632Z" fill="#05B1A1"/>
<path d="M5.91751 20.4267C4.78064 18.7671 4.68243 17.6624 4.67874 16.7922C4.66992 14.7107 5.63111 12.9355 5.63111 12.9355C6.23404 12.3426 5.83827 16.4768 8.92448 19.4608C11.4166 21.8703 14.3861 22.3895 16.3755 22.6714C16.3755 22.6714 13.8099 23.7206 12.4188 23.7251C11.3821 23.7295 10.345 23.511 9.40629 23.1589C9.21714 23.0799 9.00358 23.0773 8.81246 23.1517L6.03554 24.225C5.99018 24.2444 5.9412 24.2545 5.89167 24.2546C5.79898 24.2557 5.70871 24.2258 5.63597 24.1698C5.58146 24.1256 5.5401 24.068 5.51624 24.0029C5.49237 23.9378 5.48687 23.8676 5.50031 23.7998C5.50031 23.7998 6.05856 20.8995 6.07798 20.812C6.0974 20.7246 6.03253 20.5946 5.91751 20.4267Z" fill="#05B1A1"/>
<path d="M5.91751 20.4267L6.33001 20.1442L5.91751 20.4267ZM6.07798 20.812L6.56608 20.9205L6.56608 20.9205L6.07798 20.812ZM5.50031 23.7998L5.9908 23.8969L5.99129 23.8943L5.50031 23.7998ZM5.51624 24.0029L5.0468 24.175L5.0468 24.175L5.51624 24.0029ZM5.63597 24.1698L5.32113 24.5584L5.33089 24.5659L5.63597 24.1698ZM5.89167 24.2546L5.89089 23.7545L5.88544 23.7546L5.89167 24.2546ZM6.03554 24.225L5.85529 23.7586L5.84695 23.7618L5.83875 23.7654L6.03554 24.225ZM8.81246 23.1517L8.99271 23.6181L8.99384 23.6177L8.81246 23.1517ZM9.40629 23.1589L9.21365 23.6203L9.22211 23.6238L9.23069 23.627L9.40629 23.1589ZM12.4188 23.7251L12.4172 23.2251L12.4166 23.2251L12.4188 23.7251ZM16.3755 22.6714L16.5647 23.1342C16.7737 23.0487 16.8995 22.8338 16.8716 22.6097C16.8438 22.3856 16.6692 22.208 16.4456 22.1764L16.3755 22.6714ZM5.63111 12.9355L5.28053 12.579L5.2271 12.6316L5.19143 12.6975L5.63111 12.9355ZM8.92448 19.4608L8.57693 19.8202L8.57693 19.8202L8.92448 19.4608ZM4.17874 16.7943C4.18277 17.7447 4.30122 18.9519 5.50501 20.7093L6.33001 20.1442C5.26006 18.5822 5.18208 17.5802 5.17874 16.7901L4.17874 16.7943ZM5.50501 20.7093C5.52944 20.745 5.54861 20.7748 5.56333 20.7998C5.57829 20.8251 5.5863 20.8413 5.59005 20.8499C5.59418 20.8594 5.58992 20.8522 5.58606 20.8319C5.58216 20.8114 5.57629 20.7648 5.58988 20.7036L6.56608 20.9205C6.61067 20.7198 6.54786 20.5443 6.50627 20.4492C6.45928 20.3418 6.39353 20.2369 6.33001 20.1442L5.50501 20.7093ZM5.58988 20.7036C5.57815 20.7564 5.43133 21.5161 5.29091 22.244C5.21991 22.612 5.14951 22.9774 5.09686 23.2507C5.07054 23.3873 5.04865 23.501 5.03335 23.5804C5.0257 23.6202 5.01969 23.6514 5.0156 23.6727C5.01355 23.6833 5.01198 23.6914 5.01092 23.6969C5.01039 23.6997 5.00999 23.7018 5.00972 23.7032C5.00959 23.7039 5.00949 23.7044 5.00942 23.7047C5.00939 23.7049 5.00936 23.705 5.00934 23.7051C5.00934 23.7052 5.00933 23.7052 5.00933 23.7052C5.00932 23.7053 5.00932 23.7053 5.50031 23.7998C5.99129 23.8943 5.9913 23.8943 5.9913 23.8942C5.9913 23.8942 5.99131 23.8942 5.99132 23.8941C5.99134 23.8941 5.99136 23.8939 5.9914 23.8938C5.99146 23.8934 5.99156 23.8929 5.9917 23.8922C5.99197 23.8908 5.99237 23.8887 5.99289 23.886C5.99395 23.8805 5.99552 23.8723 5.99757 23.8617C6.00166 23.8404 6.00766 23.8092 6.01531 23.7695C6.03061 23.69 6.05249 23.5764 6.07881 23.4398C6.13145 23.1666 6.20182 22.8013 6.27281 22.4334C6.3438 22.0654 6.41537 21.6949 6.4704 21.4109C6.49792 21.2688 6.52126 21.1487 6.53831 21.0614C6.54684 21.0177 6.55374 20.9825 6.55878 20.9571C6.56452 20.9281 6.56645 20.9188 6.56608 20.9205L5.58988 20.7036ZM5.00982 23.7027C4.97854 23.8607 4.99143 24.024 5.0468 24.175L5.98568 23.8307C5.99332 23.8516 5.9952 23.8746 5.99079 23.8969L5.00982 23.7027ZM5.0468 24.175C5.10215 24.3259 5.19746 24.458 5.32122 24.5583L5.95073 23.7813C5.96545 23.7932 5.97806 23.81 5.98567 23.8307L5.0468 24.175ZM5.33089 24.5659C5.49369 24.6913 5.69389 24.7571 5.89789 24.7545L5.88544 23.7546C5.90407 23.7544 5.92373 23.7603 5.94106 23.7736L5.33089 24.5659ZM5.89245 24.7546C6.0091 24.7544 6.12478 24.7307 6.23234 24.6846L5.83875 23.7654C5.85559 23.7581 5.8733 23.7546 5.89089 23.7546L5.89245 24.7546ZM6.2158 24.6914L8.99271 23.6181L8.6322 22.6853L5.85529 23.7586L6.2158 24.6914ZM8.99384 23.6177C9.06448 23.5902 9.14398 23.5912 9.21365 23.6203L9.59893 22.6975C9.29031 22.5686 8.94268 22.5645 8.63107 22.6858L8.99384 23.6177ZM9.23069 23.627C10.2169 23.9969 11.3143 24.2298 12.4209 24.2251L12.4166 23.2251C11.4499 23.2292 10.4731 23.025 9.58189 22.6907L9.23069 23.627ZM12.4204 24.2251C13.2024 24.2226 14.2589 23.9347 15.0722 23.6725C15.4892 23.538 15.861 23.4039 16.1285 23.3035C16.2625 23.2533 16.3706 23.2113 16.4457 23.1817C16.4833 23.1669 16.5126 23.1552 16.5327 23.1472C16.5428 23.1431 16.5505 23.14 16.5559 23.1378C16.5586 23.1367 16.5607 23.1358 16.5622 23.1353C16.5629 23.135 16.5635 23.1347 16.5639 23.1345C16.5641 23.1345 16.5643 23.1344 16.5644 23.1343C16.5645 23.1343 16.5646 23.1343 16.5646 23.1343C16.5647 23.1342 16.5647 23.1342 16.3755 22.6714C16.1862 22.2086 16.1862 22.2086 16.1862 22.2086C16.1862 22.2086 16.1863 22.2086 16.1862 22.2086C16.1862 22.2086 16.1862 22.2086 16.1861 22.2087C16.1859 22.2087 16.1855 22.2089 16.185 22.2091C16.184 22.2095 16.1824 22.2102 16.1802 22.2111C16.1758 22.2129 16.169 22.2156 16.1599 22.2192C16.1418 22.2265 16.1146 22.2374 16.0793 22.2513C16.0086 22.2791 15.9055 22.3191 15.7771 22.3673C15.5201 22.4638 15.1636 22.5923 14.7653 22.7207C13.9481 22.9842 13.0262 23.2231 12.4172 23.2251L12.4204 24.2251ZM5.17874 16.7901C5.17464 15.823 5.39668 14.9163 5.62504 14.2442C5.73862 13.9099 5.85222 13.6381 5.93664 13.4515C5.9788 13.3582 6.01354 13.2866 6.03717 13.2392C6.04897 13.2156 6.05799 13.1981 6.06375 13.187C6.06664 13.1815 6.0687 13.1776 6.06989 13.1753C6.07049 13.1742 6.07087 13.1735 6.07102 13.1732C6.0711 13.1731 6.07112 13.173 6.07108 13.1731C6.07106 13.1731 6.07103 13.1732 6.07098 13.1733C6.07095 13.1733 6.07091 13.1734 6.0709 13.1734C6.07085 13.1735 6.07079 13.1736 5.63111 12.9355C5.19143 12.6975 5.19137 12.6976 5.1913 12.6977C5.19127 12.6978 5.19121 12.6979 5.19115 12.698C5.19105 12.6982 5.19093 12.6984 5.19079 12.6986C5.19052 12.6992 5.19019 12.6998 5.18981 12.7005C5.18903 12.7019 5.18803 12.7038 5.18681 12.7061C5.18437 12.7107 5.18104 12.717 5.17688 12.725C5.16857 12.7409 5.15694 12.7636 5.14249 12.7925C5.11358 12.8504 5.0733 12.9337 5.02549 13.0394C4.92995 13.2506 4.80381 13.5528 4.6782 13.9225C4.42816 14.6583 4.17402 15.68 4.17874 16.7943L5.17874 16.7901ZM5.98169 13.292C5.9787 13.295 5.96102 13.3121 5.92797 13.3305C5.89355 13.3497 5.83562 13.3738 5.75873 13.3777C5.57953 13.3867 5.47063 13.2852 5.43848 13.2475C5.41203 13.2164 5.41265 13.2032 5.42968 13.2462C5.44403 13.2824 5.46193 13.3373 5.48376 13.4172C5.52803 13.5792 5.57454 13.7902 5.63684 14.0638C5.69774 14.3313 5.77073 14.6446 5.86408 14.988C6.23719 16.3606 6.94147 18.239 8.57693 19.8202L9.27203 19.1013C7.82128 17.6986 7.18034 16.0179 6.82906 14.7257C6.7413 14.4028 6.67199 14.1058 6.61189 13.8418C6.55319 13.584 6.5 13.3424 6.44837 13.1535C6.42225 13.058 6.39314 12.963 6.35924 12.8775C6.32803 12.7988 6.27917 12.6923 6.19981 12.5991C6.11475 12.4992 5.94952 12.3668 5.70837 12.379C5.49645 12.3897 5.35183 12.5089 5.28053 12.579L5.98169 13.292ZM8.57693 19.8202C11.1911 22.3478 14.3014 22.8825 16.3053 23.1665L16.4456 22.1764C14.4707 21.8965 11.642 21.3928 9.27203 19.1013L8.57693 19.8202Z" fill="#05B1A1"/>
</svg>
