<svg width="20" height="20" viewBox="0 0 20 20" fill="none" xmlns="http://www.w3.org/2000/svg">
<path d="M19.3853 10.2182C19.3853 9.5724 19.3321 8.92312 19.2188 8.28781H10.132V11.9461H15.3356C15.1196 13.126 14.4259 14.1697 13.4099 14.8329V17.2066H16.5144C18.3374 15.552 19.3853 13.1085 19.3853 10.2182Z" fill="#4285F4"/>
<path d="M10.1321 19.5C12.7304 19.5 14.9216 18.6587 16.518 17.2066L13.4136 14.8329C12.5498 15.4124 11.4348 15.7405 10.1356 15.7405C7.6223 15.7405 5.49129 14.0684 4.72667 11.8204H1.52307V14.2674C3.15851 17.4755 6.48954 19.5 10.1321 19.5Z" fill="#34A853"/>
<path d="M4.72314 11.8204C4.31959 10.6405 4.31959 9.36292 4.72314 8.18306V5.73605H1.52309C0.156692 8.42042 0.156692 11.583 1.52309 14.2673L4.72314 11.8204Z" fill="#FBBC04"/>
<path d="M10.1321 4.25947C11.5056 4.23854 12.833 4.74817 13.8277 5.6837L16.5782 2.97139C14.8366 1.35869 12.525 0.472043 10.1321 0.499969C6.48953 0.499969 3.15851 2.52459 1.52307 5.73605L4.72313 8.18305C5.4842 5.93153 7.61875 4.25947 10.1321 4.25947Z" fill="#EA4335"/>
</svg>
