<svg width="28" height="28" viewBox="0 0 28 28" fill="none" xmlns="http://www.w3.org/2000/svg">
<path d="M5.83328 22.5896C4.24852 22.5255 4.08328 22.5896 2.33328 21.801V18.4335C2.33328 15.9956 4.32891 14 6.76817 14C7.42876 14.1944 8.86662 14.8167 9.33328 15.75" stroke="#616161" stroke-width="1.75" stroke-linecap="round"/>
<path d="M22.1666 22.5896C23.7514 22.5255 23.9166 22.5896 25.6666 21.801V18.4335C25.6666 15.9956 23.671 14 21.2317 14C20.5711 14.1944 19.1333 14.8167 18.6666 15.75" stroke="#616161" stroke-width="1.75" stroke-linecap="round" stroke-linejoin="round"/>
<path d="M19.4618 23.4641C15.8109 23.9992 12.1665 24.0208 8.52548 23.4686V20.8457C8.52548 18.8897 10.1294 17.2858 12.0854 17.2858H15.9019C17.8579 17.2858 19.4618 18.8897 19.4618 20.8457V23.4641Z" stroke="#616161" stroke-width="1.75"/>
<path d="M13.9937 8.37659C15.5825 8.37659 16.8711 9.66515 16.8711 11.254C16.8711 12.8428 15.5825 14.1314 13.9937 14.1314C12.4049 14.1314 11.1163 12.8428 11.1163 11.254C11.1163 9.66515 12.4049 8.37659 13.9937 8.37659Z" stroke="#616161" stroke-width="1.75"/>
<path d="M19.4618 23.4641C15.8109 23.9992 12.1665 24.0208 8.52548 23.4686V20.8457C8.52548 18.8897 10.1294 17.2858 12.0854 17.2858H15.9019C17.8579 17.2858 19.4618 18.8897 19.4618 20.8457V23.4641Z" stroke="#616161" stroke-width="1.75"/>
<mask id="path-6-outside-1_297_3357" maskUnits="userSpaceOnUse" x="2.49997" y="3.66666" width="9" height="9" fill="black">
<rect fill="white" x="2.49997" y="3.66666" width="9" height="9"/>
<path d="M9.92875 7.91001C10.2368 7.88301 10.4691 7.60939 10.3934 7.30952C10.2543 6.7588 9.98245 6.24731 9.59809 5.8215C9.08798 5.25636 8.4075 4.87295 7.65983 4.72942C6.91216 4.58589 6.13808 4.69006 5.45495 5.02613C4.77183 5.3622 4.21691 5.91185 3.87433 6.59174C3.53175 7.27162 3.4202 8.04467 3.55659 8.79368C3.69298 9.54268 4.06987 10.2268 4.63012 10.7423C5.19037 11.2578 5.90342 11.5765 6.66117 11.6502C7.2321 11.7057 7.80493 11.6199 8.33032 11.404C8.61639 11.2864 8.69807 10.9369 8.53644 10.6732C8.37481 10.4095 8.03055 10.3341 7.73645 10.4298C7.42674 10.5306 7.0977 10.5674 6.76958 10.5355C6.25432 10.4854 5.76944 10.2686 5.38847 9.91808C5.0075 9.56755 4.75122 9.10235 4.65847 8.59303C4.56573 8.08371 4.64158 7.55804 4.87453 7.09571C5.10749 6.63339 5.48483 6.25963 5.94936 6.0311C6.41389 5.80257 6.94026 5.73173 7.44867 5.82934C7.95709 5.92694 8.41981 6.18765 8.76669 6.57195C8.98758 6.81667 9.15382 7.103 9.25712 7.41188C9.3552 7.70519 9.62065 7.93701 9.92875 7.91001Z"/>
</mask>
<path d="M9.92875 7.91001C10.2368 7.88301 10.4691 7.60939 10.3934 7.30952C10.2543 6.7588 9.98245 6.24731 9.59809 5.8215C9.08798 5.25636 8.4075 4.87295 7.65983 4.72942C6.91216 4.58589 6.13808 4.69006 5.45495 5.02613C4.77183 5.3622 4.21691 5.91185 3.87433 6.59174C3.53175 7.27162 3.4202 8.04467 3.55659 8.79368C3.69298 9.54268 4.06987 10.2268 4.63012 10.7423C5.19037 11.2578 5.90342 11.5765 6.66117 11.6502C7.2321 11.7057 7.80493 11.6199 8.33032 11.404C8.61639 11.2864 8.69807 10.9369 8.53644 10.6732C8.37481 10.4095 8.03055 10.3341 7.73645 10.4298C7.42674 10.5306 7.0977 10.5674 6.76958 10.5355C6.25432 10.4854 5.76944 10.2686 5.38847 9.91808C5.0075 9.56755 4.75122 9.10235 4.65847 8.59303C4.56573 8.08371 4.64158 7.55804 4.87453 7.09571C5.10749 6.63339 5.48483 6.25963 5.94936 6.0311C6.41389 5.80257 6.94026 5.73173 7.44867 5.82934C7.95709 5.92694 8.41981 6.18765 8.76669 6.57195C8.98758 6.81667 9.15382 7.103 9.25712 7.41188C9.3552 7.70519 9.62065 7.93701 9.92875 7.91001Z" fill="#616161"/>
<path d="M9.92875 7.91001C10.2368 7.88301 10.4691 7.60939 10.3934 7.30952C10.2543 6.7588 9.98245 6.24731 9.59809 5.8215C9.08798 5.25636 8.4075 4.87295 7.65983 4.72942C6.91216 4.58589 6.13808 4.69006 5.45495 5.02613C4.77183 5.3622 4.21691 5.91185 3.87433 6.59174C3.53175 7.27162 3.4202 8.04467 3.55659 8.79368C3.69298 9.54268 4.06987 10.2268 4.63012 10.7423C5.19037 11.2578 5.90342 11.5765 6.66117 11.6502C7.2321 11.7057 7.80493 11.6199 8.33032 11.404C8.61639 11.2864 8.69807 10.9369 8.53644 10.6732C8.37481 10.4095 8.03055 10.3341 7.73645 10.4298C7.42674 10.5306 7.0977 10.5674 6.76958 10.5355C6.25432 10.4854 5.76944 10.2686 5.38847 9.91808C5.0075 9.56755 4.75122 9.10235 4.65847 8.59303C4.56573 8.08371 4.64158 7.55804 4.87453 7.09571C5.10749 6.63339 5.48483 6.25963 5.94936 6.0311C6.41389 5.80257 6.94026 5.73173 7.44867 5.82934C7.95709 5.92694 8.41981 6.18765 8.76669 6.57195C8.98758 6.81667 9.15382 7.103 9.25712 7.41188C9.3552 7.70519 9.62065 7.93701 9.92875 7.91001Z" stroke="#616161" stroke-width="0.7" mask="url(#path-6-outside-1_297_3357)"/>
<mask id="path-7-outside-2_297_3357" maskUnits="userSpaceOnUse" x="16.5" y="3.66666" width="9" height="9" fill="black">
<rect fill="white" x="16.5" y="3.66666" width="9" height="9"/>
<path d="M18.0712 7.91001C17.7631 7.88301 17.5308 7.60939 17.6065 7.30952C17.7456 6.7588 18.0175 6.24731 18.4018 5.8215C18.912 5.25636 19.5924 4.87295 20.3401 4.72942C21.0878 4.58589 21.8619 4.69006 22.545 5.02613C23.2281 5.3622 23.783 5.91185 24.1256 6.59174C24.4682 7.27162 24.5797 8.04467 24.4433 8.79368C24.307 9.54268 23.9301 10.2268 23.3698 10.7423C22.8096 11.2578 22.0965 11.5765 21.3388 11.6502C20.7678 11.7057 20.195 11.6199 19.6696 11.404C19.3835 11.2864 19.3019 10.9369 19.4635 10.6732C19.6251 10.4095 19.9694 10.3341 20.2635 10.4298C20.5732 10.5306 20.9022 10.5674 21.2304 10.5355C21.7456 10.4854 22.2305 10.2686 22.6115 9.91808C22.9924 9.56755 23.2487 9.10235 23.3415 8.59303C23.4342 8.08371 23.3584 7.55804 23.1254 7.09571C22.8925 6.63339 22.5151 6.25963 22.0506 6.0311C21.5861 5.80257 21.0597 5.73173 20.5513 5.82934C20.0429 5.92694 19.5801 6.18765 19.2332 6.57195C19.0124 6.81667 18.8461 7.103 18.7428 7.41188C18.6447 7.70519 18.3793 7.93701 18.0712 7.91001Z"/>
</mask>
<path d="M18.0712 7.91001C17.7631 7.88301 17.5308 7.60939 17.6065 7.30952C17.7456 6.7588 18.0175 6.24731 18.4018 5.8215C18.912 5.25636 19.5924 4.87295 20.3401 4.72942C21.0878 4.58589 21.8619 4.69006 22.545 5.02613C23.2281 5.3622 23.783 5.91185 24.1256 6.59174C24.4682 7.27162 24.5797 8.04467 24.4433 8.79368C24.307 9.54268 23.9301 10.2268 23.3698 10.7423C22.8096 11.2578 22.0965 11.5765 21.3388 11.6502C20.7678 11.7057 20.195 11.6199 19.6696 11.404C19.3835 11.2864 19.3019 10.9369 19.4635 10.6732C19.6251 10.4095 19.9694 10.3341 20.2635 10.4298C20.5732 10.5306 20.9022 10.5674 21.2304 10.5355C21.7456 10.4854 22.2305 10.2686 22.6115 9.91808C22.9924 9.56755 23.2487 9.10235 23.3415 8.59303C23.4342 8.08371 23.3584 7.55804 23.1254 7.09571C22.8925 6.63339 22.5151 6.25963 22.0506 6.0311C21.5861 5.80257 21.0597 5.73173 20.5513 5.82934C20.0429 5.92694 19.5801 6.18765 19.2332 6.57195C19.0124 6.81667 18.8461 7.103 18.7428 7.41188C18.6447 7.70519 18.3793 7.93701 18.0712 7.91001Z" fill="#616161"/>
<path d="M18.0712 7.91001C17.7631 7.88301 17.5308 7.60939 17.6065 7.30952C17.7456 6.7588 18.0175 6.24731 18.4018 5.8215C18.912 5.25636 19.5924 4.87295 20.3401 4.72942C21.0878 4.58589 21.8619 4.69006 22.545 5.02613C23.2281 5.3622 23.783 5.91185 24.1256 6.59174C24.4682 7.27162 24.5797 8.04467 24.4433 8.79368C24.307 9.54268 23.9301 10.2268 23.3698 10.7423C22.8096 11.2578 22.0965 11.5765 21.3388 11.6502C20.7678 11.7057 20.195 11.6199 19.6696 11.404C19.3835 11.2864 19.3019 10.9369 19.4635 10.6732C19.6251 10.4095 19.9694 10.3341 20.2635 10.4298C20.5732 10.5306 20.9022 10.5674 21.2304 10.5355C21.7456 10.4854 22.2305 10.2686 22.6115 9.91808C22.9924 9.56755 23.2487 9.10235 23.3415 8.59303C23.4342 8.08371 23.3584 7.55804 23.1254 7.09571C22.8925 6.63339 22.5151 6.25963 22.0506 6.0311C21.5861 5.80257 21.0597 5.73173 20.5513 5.82934C20.0429 5.92694 19.5801 6.18765 19.2332 6.57195C19.0124 6.81667 18.8461 7.103 18.7428 7.41188C18.6447 7.70519 18.3793 7.93701 18.0712 7.91001Z" stroke="#616161" stroke-width="0.7" stroke-linejoin="round" mask="url(#path-7-outside-2_297_3357)"/>
</svg>
