<svg width="24" height="24" viewBox="0 0 24 24" fill="none" xmlns="http://www.w3.org/2000/svg">
<path d="M18.9654 5.41283C18.4082 4.85563 17.5724 4.71633 16.8759 4.99493C16.8759 4.57703 16.7366 4.15914 16.3187 3.74124C16.0401 3.46264 15.4829 3.18404 14.7864 3.18404C14.3685 3.18404 14.0899 3.32334 13.8113 3.32334C13.8113 3.04474 13.672 2.90544 13.5327 2.62685C12.8362 1.79105 11.4432 1.79105 10.7467 2.62685C10.4681 2.90544 10.1895 3.18404 10.1895 3.46264C9.91094 3.46264 9.63235 3.32334 9.35375 3.32334C8.65725 3.32334 8.23935 3.60194 7.82146 4.01984C7.12496 4.71633 7.12496 5.83073 7.12496 5.83073V11.1241C6.70706 10.7062 6.01057 10.0097 5.03547 10.0097C4.75688 10.0097 4.33898 10.149 4.06038 10.2883C3.50318 10.5669 3.22458 10.9848 3.08529 11.542C2.66739 12.935 3.92108 14.8852 3.92108 15.0245C4.06038 15.1638 5.59267 18.7856 6.98566 20.3178C8.37865 21.9894 9.91094 22.9645 13.8113 22.9645C17.851 22.9645 19.6619 20.7357 19.6619 15.8603V8.19881C19.6619 8.05951 19.8012 6.38792 18.9654 5.41283ZM11.3039 4.85563C11.3039 4.43774 11.1646 3.46264 12.0004 3.46264C12.6969 3.46264 12.6969 4.15914 12.6969 4.85563V10.4276C12.6969 10.8455 12.9755 11.1241 13.3934 11.1241C13.8113 11.1241 14.0899 10.8455 14.0899 10.4276V5.13423C14.0899 5.13423 14.0899 4.57703 14.7864 4.57703C15.6222 4.57703 15.4829 5.83073 15.4829 5.83073V10.4276C15.4829 10.8455 15.7615 11.1241 16.1794 11.1241C16.5973 11.1241 16.8759 10.8455 16.8759 10.4276V7.08442C16.8759 6.94512 16.8759 6.24862 17.5724 6.24862C18.2689 6.24862 18.2689 7.64162 18.2689 7.64162V15.8603C18.2689 20.5964 16.458 21.5715 13.8113 21.5715C10.4681 21.5715 9.21445 20.875 8.10006 19.3427C6.84636 17.9498 5.17477 14.328 5.17477 14.1887C4.75688 13.7708 4.19968 12.5171 4.33898 11.9599C4.33898 11.8206 4.47828 11.6813 4.61758 11.542C4.75688 11.542 4.89617 11.4027 4.89617 11.4027C5.45337 11.4027 6.01057 12.0992 6.14987 12.3778L6.98566 13.6315C7.12496 13.9101 7.54286 14.0494 7.82146 13.9101C8.37865 13.9101 8.51795 13.6315 8.51795 13.3529V6.10933C8.51795 5.55213 8.51795 4.71633 9.21445 4.71633C9.77165 4.71633 9.91094 5.13423 9.91094 5.83073V10.4276C9.91094 10.8455 10.1895 11.1241 10.6074 11.1241C11.0253 11.1241 11.3039 10.8455 11.3039 10.4276V4.85563Z" fill="white"/>
</svg>
