<svg width="26" height="25" viewBox="0 0 26 25" fill="none" xmlns="http://www.w3.org/2000/svg">
<path fill-rule="evenodd" clip-rule="evenodd" d="M21.8812 13.5459L21.9187 21.9765C21.9227 22.9389 21.1227 23.7263 20.1498 23.7263H16.1214V18.4174C16.1214 17.2005 15.115 16.2037 13.8834 16.2037H11.9416C10.7114 16.2037 9.70363 17.2005 9.70363 18.4174V23.7263H5.92454C4.95162 23.7263 4.1556 22.9389 4.1556 21.9765L4.14756 13.5459H2.44562C1.1819 13.5459 1.02511 12.7161 1.82247 11.926L12.1935 1.66739C12.6438 1.222 13.3809 1.222 13.8312 1.66739L24.2022 11.926C24.8321 12.549 24.954 13.5459 23.7198 13.5459H21.8812Z" stroke="#616161" stroke-width="1.5" stroke-linejoin="round"/>
</svg>
