<svg width="28" height="28" viewBox="0 0 28 28" fill="none" xmlns="http://www.w3.org/2000/svg">
<path d="M3.5 20.4815L2.66846 20.0657C2.52437 20.3539 2.53977 20.6962 2.70916 20.9703C2.87856 21.2443 3.17779 21.4112 3.5 21.4112L3.5 20.4815ZM24.2407 20.4815V21.4112C24.563 21.4112 24.8622 21.2443 25.0316 20.9703C25.201 20.6962 25.2164 20.3539 25.0723 20.0657L24.2407 20.4815ZM7.02228 10.1111C7.02228 6.32903 10.0883 3.26303 13.8704 3.26303V1.40366C9.06137 1.40366 5.16291 5.30212 5.16291 10.1111H7.02228ZM13.8704 3.26303C17.6525 3.26303 20.7185 6.32903 20.7185 10.1111H22.5778C22.5778 5.30212 18.6794 1.40366 13.8704 1.40366V3.26303ZM5.16291 10.1111C5.16291 12.5631 4.547 15.0487 3.91432 16.9468C3.59983 17.8902 3.28545 18.676 3.05057 19.2241C2.93324 19.4979 2.83602 19.7117 2.76893 19.8554C2.7354 19.9273 2.70942 19.9816 2.69225 20.0171C2.68367 20.0348 2.67729 20.0478 2.67327 20.056C2.67126 20.0601 2.66984 20.0629 2.66903 20.0646C2.66863 20.0654 2.66838 20.0659 2.66828 20.0661C2.66823 20.0662 2.66823 20.0662 2.66826 20.0661C2.66827 20.0661 2.66832 20.066 2.66833 20.066C2.66839 20.0659 2.66846 20.0657 3.5 20.4815C4.33154 20.8973 4.33163 20.8971 4.33173 20.8969C4.33178 20.8968 4.33189 20.8966 4.33198 20.8964C4.33217 20.896 4.3324 20.8955 4.33266 20.895C4.33319 20.8939 4.33388 20.8926 4.33472 20.8909C4.33641 20.8875 4.33871 20.8828 4.34161 20.8769C4.3474 20.8652 4.35558 20.8484 4.36598 20.8269C4.38679 20.7839 4.41651 20.7218 4.45387 20.6417C4.52856 20.4817 4.63389 20.2499 4.75961 19.9565C5.01085 19.3703 5.34461 18.5357 5.67828 17.5347C6.34189 15.5439 7.02228 12.8443 7.02228 10.1111H5.16291ZM3.5 21.4112H24.2407V19.5518H3.5V21.4112ZM24.2407 20.4815C25.0723 20.0657 25.0724 20.0659 25.0724 20.066C25.0724 20.066 25.0725 20.0661 25.0725 20.0661C25.0725 20.0662 25.0725 20.0662 25.0725 20.0661C25.0724 20.0659 25.0721 20.0654 25.0717 20.0646C25.0709 20.0629 25.0695 20.0601 25.0675 20.056C25.0635 20.0478 25.0571 20.0348 25.0485 20.0171C25.0313 19.9816 25.0053 19.9273 24.9718 19.8554C24.9047 19.7117 24.8075 19.4979 24.6902 19.2241C24.4553 18.676 24.1409 17.8902 23.8264 16.9468C23.1937 15.0487 22.5778 12.5631 22.5778 10.1111H20.7185C20.7185 12.8443 21.3989 15.5439 22.0625 17.5347C22.3961 18.5357 22.7299 19.3703 22.9811 19.9565C23.1069 20.2499 23.2122 20.4817 23.2869 20.6417C23.3242 20.7218 23.354 20.7839 23.3748 20.8269C23.3852 20.8484 23.3933 20.8652 23.3991 20.8769C23.402 20.8828 23.4043 20.8875 23.406 20.8909C23.4069 20.8926 23.4076 20.8939 23.4081 20.895C23.4083 20.8955 23.4086 20.896 23.4088 20.8964C23.4089 20.8966 23.409 20.8968 23.409 20.8969C23.4091 20.8971 23.4092 20.8973 24.2407 20.4815ZM16.8296 21.7778C16.8296 23.4121 15.5047 24.737 13.8704 24.737V26.5964C16.5316 26.5964 18.6889 24.439 18.6889 21.7778H16.8296ZM13.8704 24.737C12.236 24.737 10.9112 23.4121 10.9112 21.7778H9.0518C9.0518 24.439 11.2091 26.5964 13.8704 26.5964V24.737ZM10.9112 21.7778V20.4815H9.0518V21.7778H10.9112ZM18.6889 21.7778V20.4815H16.8296V21.7778H18.6889Z" fill="#616161"/>
</svg>
