<svg width="96" height="96" viewBox="0 0 96 96" fill="none" xmlns="http://www.w3.org/2000/svg">
<path fill-rule="evenodd" clip-rule="evenodd" d="M8 46.2337V46.2568C8 46.3032 8 46.3495 8 46.3958C8 46.4653 8 46.5116 8 46.5579V46.5811C8 59.48 10.9922 69.0674 16.9533 75.3663C22.9145 81.6653 31.5199 84.8147 42.7695 84.8147H53.2537C64.5033 84.8147 73.1087 81.6653 79.0699 75.3663C85.031 69.0674 88 59.48 88 46.5811C88 46.5116 88 46.4653 88 46.3958C88 46.3495 88 46.28 88 46.2337C88 33.3347 85.031 23.7474 79.0699 17.4484C73.1087 11.1495 64.5033 8 53.2537 8H42.7695C31.5199 8 22.9145 11.1495 16.9533 17.4484C10.9922 23.7474 8 33.3347 8 46.2337ZM26.5329 65.4547C23.1696 61.5411 21.4764 55.1958 21.4532 46.3958C21.4764 37.6189 23.1696 31.2737 26.5329 27.3368C29.8962 23.4 35.3239 21.4316 42.7695 21.4316H53.2537C54.1815 21.4316 55.0629 21.4547 55.9211 21.5242C58.4958 21.7095 60.7689 22.1495 62.7869 22.8905C65.5239 23.8632 67.7507 25.3453 69.4439 27.3368C69.8614 27.8463 70.2557 28.4021 70.6268 28.9811C70.9052 29.3979 71.1603 29.8611 71.3923 30.3242C71.4619 30.44 71.5315 30.5558 71.5778 30.6716C71.7866 31.0884 71.9954 31.5284 72.1577 31.9916C72.2505 32.2 72.3433 32.4084 72.4129 32.6168C72.5752 33.0337 72.7144 33.4737 72.8536 33.9368C72.9464 34.1916 73.0159 34.4695 73.0855 34.7474C73.1783 35.0253 73.2479 35.3263 73.3175 35.6274C73.4335 36.0674 73.5262 36.5305 73.619 36.9937C73.6886 37.2947 73.735 37.6189 73.8046 37.92C73.851 38.2442 73.8974 38.5684 73.9669 38.9158C74.0365 39.4253 74.1061 39.9579 74.1525 40.5137C74.1757 40.8147 74.2221 41.139 74.2453 41.4632C74.2917 42.0884 74.3381 42.6905 74.3613 43.339C74.3845 43.5705 74.3845 43.8021 74.4077 44.0337C74.4308 44.7516 74.454 45.4695 74.454 46.2105C74.454 46.2568 74.454 46.3263 74.454 46.3958C74.454 46.4653 74.454 46.5347 74.454 46.6042C74.454 47.3453 74.4308 48.0632 74.4077 48.7579C74.3845 49.0126 74.3845 49.2442 74.3613 49.4758C74.3381 50.1242 74.2917 50.7263 74.2453 51.3284C74.2221 51.6526 74.1757 51.9768 74.1525 52.3011C74.1061 52.8337 74.0365 53.3663 73.9669 53.899C73.8974 54.2232 73.851 54.5474 73.8046 54.8716C73.735 55.1958 73.6886 55.4968 73.619 55.7979C73.5262 56.2842 73.4335 56.7242 73.3175 57.1642C73.2479 57.4653 73.1783 57.7663 73.0855 58.0674C73.0159 58.3453 72.9464 58.6232 72.8536 58.8779C72.7144 59.3411 72.5752 59.7579 72.4129 60.1979C72.3433 60.36 72.2737 60.5453 72.2041 60.7074V69.299H64.2946C63.8075 69.5074 63.3204 69.739 62.7869 69.9242C60.7689 70.6421 58.4958 71.1053 55.9211 71.2905C55.0629 71.36 54.1815 71.3832 53.2537 71.3832H42.7695C35.3239 71.3832 29.8962 69.4147 26.5329 65.4547Z" fill="url(#paint0_linear_1_4639)"/>
<path d="M37.9473 42.576H33.285C32.3572 42.576 31.5918 43.3402 31.5918 44.2897V48.9444C31.5918 49.8707 32.3572 50.6349 33.285 50.6349H37.9473C38.8983 50.6349 39.6405 49.8707 39.6405 48.9444V44.2897C39.6405 43.3402 38.8983 42.576 37.9473 42.576Z" fill="#05B1A1"/>
<path d="M49.6572 42.576H44.995C44.0672 42.576 43.3018 43.3402 43.3018 44.2897V48.9444C43.3018 49.8707 44.0672 50.6349 44.995 50.6349H49.6572C50.6082 50.6349 51.3737 49.8707 51.3737 48.9444V44.2897C51.3737 43.3402 50.6082 42.576 49.6572 42.576Z" fill="#05B1A1"/>
<path d="M61.6301 42.576H56.9679C56.0169 42.576 55.2515 43.3402 55.2515 44.2897V48.9444C55.2515 49.8707 56.0169 50.6349 56.9679 50.6349H61.6301C62.5579 50.6349 63.3234 49.8707 63.3234 48.9444V44.2897C63.3234 43.3402 62.5579 42.576 61.6301 42.576Z" fill="#05B1A1"/>
<path fill-rule="evenodd" clip-rule="evenodd" d="M8 46.2337V46.2568C8 46.3032 8 46.3495 8 46.3958C8 46.4653 8 46.5116 8 46.5579V46.5811C8 59.48 10.9922 69.0674 16.9533 75.3663C22.9145 81.6653 31.5199 84.8147 42.7695 84.8147H53.2537C64.5033 84.8147 73.1087 81.6653 79.0699 75.3663C85.031 69.0674 88 59.48 88 46.5811C88 46.5116 88 46.4653 88 46.3958C88 46.3495 88 46.28 88 46.2337C88 33.3347 85.031 23.7474 79.0699 17.4484C73.1087 11.1495 64.5033 8 53.2537 8H42.7695C31.5199 8 22.9145 11.1495 16.9533 17.4484C10.9922 23.7474 8 33.3347 8 46.2337ZM26.5329 65.4547C23.1696 61.5411 21.4764 55.1958 21.4532 46.3958C21.4764 37.6189 23.1696 31.2737 26.5329 27.3368C29.8962 23.4 35.3239 21.4316 42.7695 21.4316H53.2537C54.1815 21.4316 55.0629 21.4547 55.9211 21.5242C58.4958 21.7095 60.7689 22.1495 62.7869 22.8905C65.5239 23.8632 67.7507 25.3453 69.4439 27.3368C69.8614 27.8463 70.2557 28.4021 70.6268 28.9811C70.9052 29.3979 71.1603 29.8611 71.3923 30.3242C71.4619 30.44 71.5315 30.5558 71.5778 30.6716C71.7866 31.0884 71.9954 31.5284 72.1577 31.9916C72.2505 32.2 72.3433 32.4084 72.4129 32.6168C72.5752 33.0337 72.7144 33.4737 72.8536 33.9368C72.9464 34.1916 73.0159 34.4695 73.0855 34.7474C73.1783 35.0253 73.2479 35.3263 73.3175 35.6274C73.4335 36.0674 73.5262 36.5305 73.619 36.9937C73.6886 37.2947 73.735 37.6189 73.8046 37.92C73.851 38.2442 73.8974 38.5684 73.9669 38.9158C74.0365 39.4253 74.1061 39.9579 74.1525 40.5137C74.1757 40.8147 74.2221 41.139 74.2453 41.4632C74.2917 42.0884 74.3381 42.6905 74.3613 43.339C74.3845 43.5705 74.3845 43.8021 74.4077 44.0337C74.4308 44.7516 74.454 45.4695 74.454 46.2105C74.454 46.2568 74.454 46.3263 74.454 46.3958C74.454 46.4653 74.454 46.5347 74.454 46.6042C74.454 47.3453 74.4308 48.0632 74.4077 48.7579C74.3845 49.0126 74.3845 49.2442 74.3613 49.4758C74.3381 50.1242 74.2917 50.7263 74.2453 51.3284C74.2221 51.6526 74.1757 51.9768 74.1525 52.3011C74.1061 52.8337 74.0365 53.3663 73.9669 53.899C73.8974 54.2232 73.851 54.5474 73.8046 54.8716C73.735 55.1958 73.6886 55.4968 73.619 55.7979C73.5262 56.2842 73.4335 56.7242 73.3175 57.1642C73.2479 57.4653 73.1783 57.7663 73.0855 58.0674C73.0159 58.3453 72.9464 58.6232 72.8536 58.8779C72.7144 59.3411 72.5752 59.7579 72.4129 60.1979C72.3433 60.36 72.2737 60.5453 72.2041 60.7074V69.299H64.2946C63.8075 69.5074 63.3204 69.739 62.7869 69.9242C60.7689 70.6421 58.4958 71.1053 55.9211 71.2905C55.0629 71.36 54.1815 71.3832 53.2537 71.3832H42.7695C35.3239 71.3832 29.8962 69.4147 26.5329 65.4547Z" fill="url(#paint1_linear_1_4639)"/>
<path d="M37.9473 42.576H33.285C32.3572 42.576 31.5918 43.3402 31.5918 44.2897V48.9444C31.5918 49.8707 32.3572 50.6349 33.285 50.6349H37.9473C38.8983 50.6349 39.6405 49.8707 39.6405 48.9444V44.2897C39.6405 43.3402 38.8983 42.576 37.9473 42.576Z" fill="#05B1A1"/>
<path d="M49.6572 42.576H44.995C44.0672 42.576 43.3018 43.3402 43.3018 44.2897V48.9444C43.3018 49.8707 44.0672 50.6349 44.995 50.6349H49.6572C50.6082 50.6349 51.3737 49.8707 51.3737 48.9444V44.2897C51.3737 43.3402 50.6082 42.576 49.6572 42.576Z" fill="#05B1A1"/>
<path d="M61.6301 42.576H56.9679C56.0169 42.576 55.2515 43.3402 55.2515 44.2897V48.9444C55.2515 49.8707 56.0169 50.6349 56.9679 50.6349H61.6301C62.5579 50.6349 63.3234 49.8707 63.3234 48.9444V44.2897C63.3234 43.3402 62.5579 42.576 61.6301 42.576Z" fill="#05B1A1"/>
<defs>
<linearGradient id="paint0_linear_1_4639" x1="8" y1="46.4074" x2="88" y2="46.4074" gradientUnits="userSpaceOnUse">
<stop stop-color="#05B1A1"/>
<stop offset="1" stop-color="#05678E"/>
</linearGradient>
<linearGradient id="paint1_linear_1_4639" x1="8" y1="46.4074" x2="88" y2="46.4074" gradientUnits="userSpaceOnUse">
<stop stop-color="#05B1A1"/>
<stop offset="1" stop-color="#05678E"/>
</linearGradient>
</defs>
</svg>
