<svg width="28" height="28" viewBox="0 0 28 28" fill="none" xmlns="http://www.w3.org/2000/svg">
<path fill-rule="evenodd" clip-rule="evenodd" d="M12.2027 23.3691L14.2746 22.0314L16.3136 23.3385L19.8874 25.6667V16.6499C18.3527 17.814 16.3904 18.5186 14.2527 18.5186C12.1259 18.5186 10.1636 17.814 8.61792 16.6499V25.6667L12.2027 23.3691Z" fill="#733B0B"/>
<path fill-rule="evenodd" clip-rule="evenodd" d="M16.3142 23.3385V18.294C15.6455 18.4267 14.9658 18.5186 14.2532 18.5186C13.5516 18.5186 12.861 18.4267 12.2032 18.294V23.3691L14.2752 22.0314L16.3142 23.3385Z" fill="#EA6C00"/>
<path d="M14.2526 18.0182C18.9024 18.0182 22.6718 14.5071 22.6718 10.1758C22.6718 5.84453 18.9024 2.33334 14.2526 2.33334C9.60274 2.33334 5.83331 5.84453 5.83331 10.1758C5.83331 14.5071 9.60274 18.0182 14.2526 18.0182Z" fill="#EA6C00"/>
<path d="M14.2519 17.089C18.3507 17.089 21.6735 13.9939 21.6735 10.1758C21.6735 6.35775 18.3507 3.2626 14.2519 3.2626C10.153 3.2626 6.8302 6.35775 6.8302 10.1758C6.8302 13.9939 10.153 17.089 14.2519 17.089Z" fill="#332C2B"/>
<path fill-rule="evenodd" clip-rule="evenodd" d="M14.2528 15.4041L15.8972 12.4019L17.5306 9.37927H14.2528H10.975L12.6194 12.4019L14.2528 15.4041Z" fill="#EA6C00"/>
<path fill-rule="evenodd" clip-rule="evenodd" d="M14.2528 6.27496L15.8972 7.82712L17.5306 9.37927H14.2528H10.975L12.6194 7.82712L14.2528 6.27496Z" fill="#FEEEB7"/>
<path fill-rule="evenodd" clip-rule="evenodd" d="M10.9745 9.3793H8.86969L14.2523 15.4041L12.6189 12.4019L10.9745 9.3793Z" fill="#733B0B"/>
<path fill-rule="evenodd" clip-rule="evenodd" d="M17.5307 9.37927H19.6355L14.2529 15.4041L15.8973 12.4019L17.5307 9.37927Z" fill="#733B0B"/>
<path fill-rule="evenodd" clip-rule="evenodd" d="M17.5304 9.3793H19.6352L17.4098 6.50986L17.5304 9.3793Z" fill="#FDAD00"/>
<path fill-rule="evenodd" clip-rule="evenodd" d="M10.9745 9.3793H8.86969L11.1061 6.50986L10.9745 9.3793Z" fill="#FDAD00"/>
<path fill-rule="evenodd" clip-rule="evenodd" d="M14.2528 6.27496L11.1066 6.50983L10.975 9.37927L12.6194 7.82712L14.2528 6.27496Z" fill="#FDD231"/>
<path fill-rule="evenodd" clip-rule="evenodd" d="M14.2529 6.27496L17.4101 6.50983L17.5307 9.37927L15.8973 7.82712L14.2529 6.27496Z" fill="#FDD231"/>
</svg>
