<svg width="16" height="16" viewBox="0 0 16 16" fill="none" xmlns="http://www.w3.org/2000/svg">
<path d="M14.6667 14.0029L10.7679 10.0668C11.6468 9.01029 12.0769 7.65464 11.9834 6.28963C11.8899 4.92462 11.2634 3.64375 10.2537 2.72751C9.24394 1.80192 7.90701 1.30641 6.542 1.33446C5.16765 1.37185 3.86806 1.92345 2.89573 2.89579C1.92339 3.86813 1.37185 5.16772 1.33446 6.54208C1.30641 7.9071 1.80192 9.24403 2.7275 10.2538C3.64374 11.2729 4.92455 11.8899 6.28955 11.9834C7.65456 12.0769 9.01025 11.6469 10.0667 10.7774L13.9934 14.6667L14.6667 14.0029ZM2.33479 6.66363C2.33479 5.81283 2.58725 4.97138 3.06407 4.26083C3.54088 3.55027 4.214 2.98929 5.00869 2.66206C5.80339 2.33483 6.67293 2.25067 7.51437 2.41896C8.35582 2.58725 9.12246 2.99864 9.73017 3.60636C10.3379 4.21407 10.7493 4.98071 10.9176 5.82216C11.0858 6.66361 10.9923 7.5331 10.6651 8.32779C10.3379 9.11315 9.78631 9.79567 9.07576 10.2725C8.36521 10.7493 7.52369 11.0018 6.66355 11.0018C5.52293 11.0018 4.41968 10.5436 3.60629 9.73021C2.79289 8.91681 2.33479 7.81361 2.33479 6.66363Z" fill="#5C5C5C"/>
</svg>
